# xmcd CD database file
#
# Track frame offsets:
#	150
#	4640
#	47647
#	89472
#	143117
#
# Disc length: 2516 seconds
#
# Revision: 0
# Processed by: cddbd v1.5.1PL0 Copyright (c) Steve Scherf et al.
# Submitted via: CDex 1.51
#
DISCID=3609d205
DTITLE=Jimmy Smith - The Incredible Jimmy Smith at Club Baby Grand Vol.1
DYEAR=1956
DGENRE=Jazz
TTITLE0=Introduction by Mitch Thomas
TTITLE1=Sweet Georgia Brown
TTITLE2=Where or When
TTITLE3=The Preacher
TTITLE4=Rosetta
EXTD=YEAR: 1956
EXTT0=
EXTT1=
EXTT2=
EXTT3=
EXTT4=
PLAYORDER=
